<?xml version="1.0" encoding="UTF-8"?>
<svg width="21px" height="30px" viewBox="0 0 21 30" version="1.1" xmlns="http://www.w3.org/2000/svg" xmlns:xlink="http://www.w3.org/1999/xlink">
    <!-- Generator: Sketch 61 (89581) - https://sketch.com -->
    <title>Accessible Pin</title>
    <desc>Created with Sketch.</desc>
    <g id="Accessible-Pin" stroke="none" stroke-width="1" fill="none" fill-rule="evenodd">
        <path d="M10.5,30 L11.5824742,28.7379808 C12.4965636,27.65625 13.362543,26.5504808 14.1804124,25.4206731 C15.3591065,23.8100962 16.4054983,22.2596154 17.3195876,20.7692308 C18.4261168,18.8942308 19.2920962,17.1514423 19.9175258,15.5408654 C20.6391753,13.6418269 21,11.9591346 21,10.4927885 C21,8.56971154 20.5309278,6.80288462 19.5927835,5.19230769 C18.6546392,3.60576923 17.3917526,2.34375 15.8041237,1.40625 C14.1924399,0.46875 12.4243986,0 10.5,0 C8.57560137,0 6.80756014,0.46875 5.19587629,1.40625 C3.60824742,2.34375 2.34536082,3.60576923 1.40721649,5.19230769 C0.469072165,6.80288462 0,8.56971154 0,10.4927885 C0,11.9591346 0.360824742,13.6418269 1.08247423,15.5408654 C1.70790378,17.1514423 2.57388316,18.8942308 3.68041237,20.7692308 C4.59450172,22.2596154 5.64089347,23.8100962 6.81958763,25.4206731 C7.63745704,26.5504808 8.50343643,27.65625 9.41752577,28.7379808 L10.5,30 Z" id="Pin" fill="#28A745" fill-rule="nonzero"></path>
        <path d="M13.75,16.325 C13.9753333,16.325 14.179,16.2643333 14.361,16.143 C14.543,16.0216667 14.6686667,15.8613333 14.738,15.662 L14.738,15.662 L16.389,11.853 C16.441,11.723 16.467,11.5886667 16.467,11.45 L16.467,11.45 L16.467,10.41 L16.441,10.41 L16.467,10.358 C16.467,10.0633333 16.3586667,9.812 16.142,9.604 C15.9253333,9.396 15.6696667,9.292 15.375,9.292 L15.375,9.292 L11.943,9.292 L12.476,6.809 L12.476,6.627 C12.476,6.40166667 12.4023333,6.21533333 12.255,6.068 L12.255,6.068 L11.67,5.483 L8.108,9.058 C7.89133333,9.292 7.783,9.54766667 7.783,9.825 L7.783,9.825 L7.783,15.233 C7.783,15.5276667 7.89133333,15.7833333 8.108,16 C8.32466667,16.2166667 8.58033333,16.325 8.875,16.325 L8.875,16.325 L13.75,16.325 Z M6.717,16.325 L6.717,9.825 L4.533,9.825 L4.533,16.325 L6.717,16.325 Z" id="" fill="#FFFFFF" fill-rule="nonzero"></path>
    </g>
</svg>