<?xml version="1.0" encoding="UTF-8" standalone="no" ?>
<!DOCTYPE svg PUBLIC "-//W3C//DTD SVG 1.1//EN" "http://www.w3.org/Graphics/SVG/1.1/DTD/svg11.dtd">
<svg xmlns="http://www.w3.org/2000/svg" xmlns:xlink="http://www.w3.org/1999/xlink" version="1.1" width="445" height="445" viewBox="0 0 445 445" xml:space="preserve">
<desc>Created with Fabric.js 1.7.22</desc>
<defs>
</defs>
<g id="icon" style="stroke: none; stroke-width: 1; stroke-dasharray: none; stroke-linecap: butt; stroke-linejoin: miter; stroke-miterlimit: 10; fill: none; fill-rule: nonzero; opacity: 1;" transform="translate(-2.4722222222222285 -2.4722222222222285) scale(4.94 4.94)" >
	<circle cx="45.354" cy="32.644000000000005" r="20.414" style="stroke: none; stroke-width: 1; stroke-dasharray: none; stroke-linecap: butt; stroke-linejoin: miter; stroke-miterlimit: 10; fill: rgb(255,209,93); fill-rule: nonzero; opacity: 1;" transform="  matrix(1 0 0 1 0 0) "/>
	<path d="M 45 0 C 25.463 0 9.625 15.838 9.625 35.375 c 0 8.722 3.171 16.693 8.404 22.86 L 45 90 l 26.97 -31.765 c 5.233 -6.167 8.404 -14.139 8.404 -22.86 C 80.375 15.838 64.537 0 45 0 z M 60.418 36.216 l -8.55 8.55 L 45 51.634 l -6.868 -6.868 c 0 0 0 0 0 0 l -8.549 -8.549 c -3.793 -3.793 -3.793 -9.943 0 -13.736 h 0 c 3.793 -3.793 9.943 -3.793 13.736 0 L 45 24.162 l 1.682 -1.682 c 3.793 -3.793 9.943 -3.793 13.736 0 C 64.211 26.273 64.211 32.423 60.418 36.216 z" style="stroke: none; stroke-width: 1; stroke-dasharray: none; stroke-linecap: butt; stroke-linejoin: miter; stroke-miterlimit: 10; fill: rgb(243,112,91); fill-rule: nonzero; opacity: 1;" transform=" matrix(1 0 0 1 0 0) " stroke-linecap="round" />
	<path d="M 45 2 c 18.403 0 33.375 14.972 33.375 33.375 c 0 7.881 -2.816 15.54 -7.929 21.566 L 45 86.91 L 19.555 56.941 c -5.113 -6.026 -7.929 -13.685 -7.929 -21.567 C 11.625 16.972 26.597 2 45 2 M 45 21.334 l -0.268 -0.268 c -2.212 -2.212 -5.154 -3.431 -8.282 -3.431 c -3.129 0 -6.07 1.218 -8.282 3.431 c -4.567 4.567 -4.567 11.997 0 16.564 l 8.55 8.55 l 6.868 6.868 L 45 54.462 l 1.414 -1.414 l 6.868 -6.868 l 8.55 -8.55 c 4.567 -4.567 4.567 -11.997 0 -16.564 c -2.212 -2.212 -5.154 -3.431 -8.282 -3.431 s -6.07 1.218 -8.282 3.431 L 45 21.334 M 45 0 C 25.463 0 9.625 15.838 9.625 35.375 c 0 8.722 3.171 16.693 8.404 22.86 L 45 90 l 26.97 -31.765 c 5.233 -6.167 8.404 -14.139 8.404 -22.86 C 80.375 15.838 64.537 0 45 0 L 45 0 z M 45 24.162 l 1.682 -1.682 c 1.897 -1.897 4.382 -2.845 6.868 -2.845 c 2.486 0 4.971 0.948 6.868 2.845 c 3.793 3.793 3.793 9.943 0 13.736 l -8.55 8.55 L 45 51.634 l -6.868 -6.868 c 0 0 0 0 0 0 l -8.55 -8.549 c -3.793 -3.793 -3.793 -9.943 0 -13.736 h 0 c 1.897 -1.897 4.382 -2.845 6.868 -2.845 c 2.486 0 4.971 0.948 6.868 2.845 L 45 24.162 L 45 24.162 z" style="stroke: none; stroke-width: 1; stroke-dasharray: none; stroke-linecap: butt; stroke-linejoin: miter; stroke-miterlimit: 10; fill: rgb(243,112,91); fill-rule: nonzero; opacity: 1;" transform=" matrix(1 0 0 1 0 0) " stroke-linecap="round" />
</g>
</svg>